<svg width="134" height="126" viewBox="0 0 134 126" fill="none" xmlns="http://www.w3.org/2000/svg">
<g clip-path="url(#clip0_0:1)">
<path d="M68.8212 65.1677C67.9742 64.3207 67.6898 63.0622 68.0904 61.9332C68.7092 60.1892 83.3898 19.0763 95.9508 6.51698C104.64 -2.17233 118.78 -2.17233 127.471 6.51698C136.121 15.1665 136.232 29.2784 127.472 38.0383C114.911 50.5977 73.7997 65.2797 72.0559 65.8985C70.9911 66.2761 69.7148 66.0612 68.8212 65.1677Z" fill="#00E1FF"/>
<path d="M68.8212 65.1676L127.471 6.51685C136.121 15.1664 136.232 29.2783 127.472 38.0382C114.911 50.5975 73.7995 65.2796 72.0557 65.8984C70.9911 66.276 69.7148 66.0611 68.8212 65.1676Z" fill="#00C8FF"/>
<path d="M46.8249 72.6001C45.3743 72.1543 44.4582 70.7254 44.6588 69.2211C46.4601 55.7117 40.972 47.1259 35.6649 38.8229C31.723 32.6565 28 26.8319 28 19.7369C28 8.8541 36.8541 0 47.7369 0C58.6197 0 67.4738 8.8541 67.4738 19.7369C67.4738 34.9978 59.3228 53.4035 50.5144 71.0202C50.2138 71.6218 48.929 73.2464 46.8249 72.6001Z" fill="#FF6EFF"/>
<path d="M50.5146 71.0204C59.323 53.4037 67.474 34.998 67.474 19.7371C67.474 8.8541 58.6199 0 47.7369 0V72.7487C49.3008 72.7705 50.2602 71.5293 50.5146 71.0204Z" fill="#FF2DB4"/>
<path d="M114.263 106C107.168 106 101.344 102.277 95.1771 98.3353C86.8743 93.028 78.2885 87.5398 64.7789 89.3414C63.274 89.5408 61.8457 88.6257 61.4 87.1752C60.9542 85.7246 61.6223 84.1642 62.9796 83.4855C70.7207 79.6151 79.8506 75.2132 88.8724 71.9127C98.7795 68.2882 107.085 66.5264 114.263 66.5264C125.146 66.5264 134 75.3803 134 86.2633C134 97.1463 125.146 106 114.263 106Z" fill="#6441EB"/>
<path d="M61.2652 86.2629C61.2652 86.5658 61.307 86.8726 61.4 87.1751C61.8457 88.6256 63.274 89.5407 64.7789 89.3413C78.2883 87.5397 86.8741 93.0281 95.1771 98.3351C101.344 102.277 107.168 106 114.263 106C125.146 106 134 97.1457 134 86.2629H61.2652Z" fill="#3C0FB4"/>
</g>
<circle cx="50.5" cy="75.5" r="50.5" fill="#C97A01"/>
<path d="M61.5298 88.973L37.5 88.9731L38.5 73.0001L39.5 59.5L61.5298 59.5M36.5 77L55.5 77" stroke="#F2F2F2" stroke-width="5" stroke-linecap="round" stroke-linejoin="round"/>
<defs>
<clipPath id="clip0_0:1">
<rect width="106" height="106" fill="white" transform="translate(28)"/>
</clipPath>
</defs>
</svg>
