<svg width="31" height="31" viewBox="0 0 31 31" fill="none" xmlns="http://www.w3.org/2000/svg">
<path d="M15.5 0C24.0405 0 31 6.944 31 15.5C31 24.0405 24.0405 31 15.5 31C6.944 31 0 24.0405 0 15.5C0 6.944 6.944 0 15.5 0ZM10.943 12.4465C10.4935 11.9815 9.7495 11.9815 9.3 12.431C8.835 12.896 8.835 13.6245 9.3 14.074L14.6785 19.4835C14.8955 19.7005 15.19 19.8245 15.5 19.8245C15.81 19.8245 16.1045 19.7005 16.3215 19.4835L21.7 14.074C21.9325 13.857 22.041 13.5625 22.041 13.268C22.041 12.958 21.9325 12.6635 21.7 12.431C21.235 11.9815 20.5065 11.9815 20.057 12.4465L15.5 17.019L10.943 12.4465Z" fill="#C2C5C8"/>
</svg>
